<svg id="brush" width="35" height="35" viewBox="0 0 35 35" fill="none" xmlns="http://www.w3.org/2000/svg">
<path d="M11.4211 27C10.5921 27 9.77237 26.7962 8.96184 26.3885C8.15132 25.9808 7.49737 25.4434 7 24.7763C7.47895 24.7763 7.96711 24.5864 8.46447 24.2065C8.96184 23.8266 9.21053 23.2753 9.21053 22.5526C9.21053 21.626 9.53289 20.8385 10.1776 20.1899C10.8224 19.5413 11.6053 19.217 12.5263 19.217C13.4474 19.217 14.2303 19.5413 14.875 20.1899C15.5197 20.8385 15.8421 21.626 15.8421 22.5526C15.8421 23.7756 15.4092 24.8226 14.5434 25.6936C13.6776 26.5645 12.6368 27 11.4211 27ZM11.4211 24.7763C12.0289 24.7763 12.5493 24.5586 12.9822 24.1231C13.4151 23.6876 13.6316 23.1641 13.6316 22.5526C13.6316 22.2376 13.5257 21.9735 13.3138 21.7604C13.102 21.5473 12.8395 21.4407 12.5263 21.4407C12.2132 21.4407 11.9507 21.5473 11.7388 21.7604C11.527 21.9735 11.4211 22.2376 11.4211 22.5526C11.4211 22.9788 11.3704 23.3679 11.2691 23.72C11.1678 24.0721 11.0342 24.4057 10.8684 24.7207C10.9605 24.7578 11.0526 24.7763 11.1447 24.7763H11.4211ZM17.7763 20.3289L14.7368 17.2713L24.6289 7.32021C24.8316 7.11637 25.0849 7.00982 25.3888 7.00056C25.6928 6.99129 25.9553 7.09784 26.1763 7.32021L27.6684 8.82121C27.8895 9.04358 28 9.30302 28 9.59951C28 9.896 27.8895 10.1554 27.6684 10.3778L17.7763 20.3289Z" fill="currentColor"/>
</svg>
