<svg id="file" width="35" height="35" viewBox="0 0 35 35" fill="none" xmlns="http://www.w3.org/2000/svg">
<path d="M15.875 24.6H18.125V21.3H21.5V19.1H18.125V15.8H15.875V19.1H12.5V21.3H15.875V24.6ZM10.25 29C9.63125 29 9.10156 28.7846 8.66094 28.3538C8.22031 27.9229 8 27.405 8 26.8V9.2C8 8.595 8.22031 8.07708 8.66094 7.64625C9.10156 7.21542 9.63125 7 10.25 7H19.25L26 13.6V26.8C26 27.405 25.7797 27.9229 25.3391 28.3538C24.8984 28.7846 24.3687 29 23.75 29H10.25ZM18.125 14.7V9.2H10.25V26.8H23.75V14.7H18.125Z" fill="currentColor"/>
</svg>
