<svg id="mouse" width="35" height="35" viewBox="0 0 35 35" fill="none" xmlns="http://www.w3.org/2000/svg">
<path d="M18.845 31.5382C18.6612 31.5775 18.4776 31.5972 18.2941 31.5972H17.7428C15.8263 31.5972 14.0253 31.2336 12.3397 30.5064C10.6541 29.7792 9.18789 28.7922 7.94102 27.5456C6.69414 26.299 5.70709 24.833 4.97987 23.1476C4.2524 21.4623 3.88867 19.6616 3.88867 17.7456C3.88867 15.8294 4.25228 14.0282 4.97951 12.3421C5.70673 10.656 6.69366 9.18945 7.94029 7.94233C9.18692 6.69521 10.6529 5.7078 12.3383 4.98009C14.0236 4.25262 15.8243 3.88889 17.7403 3.88889C19.6565 3.88889 21.4577 4.25262 23.1438 4.98009C24.8299 5.70731 26.2965 6.69436 27.5436 7.94123C28.7907 9.18811 29.7781 10.6543 30.5058 12.3399C31.2333 14.0255 31.597 15.8266 31.597 17.7431V18.287C31.597 18.4683 31.5773 18.6498 31.5379 18.8313L29.4095 18.1806V17.7431C29.4095 14.4861 28.2793 11.7274 26.0189 9.46701C23.7585 7.2066 20.9998 6.07639 17.7428 6.07639C14.4859 6.07639 11.7272 7.2066 9.4668 9.46701C7.20638 11.7274 6.07617 14.4861 6.07617 17.7431C6.07617 21 7.20638 23.7587 9.4668 26.0191C11.7272 28.2795 14.4859 29.4097 17.7428 29.4097H18.1803L18.845 31.5382ZM29.614 31.8076L23.0012 25.1806L21.4167 29.9705L17.7428 17.7431L29.9702 21.417L25.1803 23.0014L31.8074 29.6143L29.614 31.8076Z" fill="currentColor"/>
</svg>
