<svg id="discord" width="28" height="28" viewBox="0 0 28 28" fill="none" xmlns="http://www.w3.org/2000/svg">
<path d="M21.6882 6.87165C20.2532 6.20665 18.7249 5.71665 17.1149 5.43665C16.9165 5.78665 16.6832 6.26498 16.5315 6.64998C14.8282 6.39331 13.1365 6.39331 11.4682 6.64998C11.3049 6.26498 11.0715 5.78665 10.8732 5.43665C9.26321 5.71665 7.73488 6.20665 6.29988 6.87165C3.40654 11.235 2.62488 15.4934 3.00988 19.6817C4.93488 21.1167 6.78988 21.98 8.62154 22.5517C9.07654 21.9333 9.47321 21.2683 9.82321 20.58C9.15821 20.335 8.52821 20.02 7.93321 19.6583C8.09654 19.5417 8.24821 19.4134 8.39988 19.2967C12.0515 21 16.0065 21 19.6115 19.2967C19.7632 19.425 19.9149 19.5417 20.0782 19.6583C19.4832 20.02 18.8415 20.3233 18.1882 20.58C18.5382 21.2683 18.9349 21.9333 19.3899 22.5517C21.2215 21.98 23.0882 21.1167 25.0015 19.6817C25.4565 14.8167 24.2199 10.605 21.7115 6.87165H21.6882ZM10.3132 17.115C9.21654 17.115 8.31821 16.1 8.31821 14.8517C8.31821 13.6033 9.19321 12.5883 10.3132 12.5883C11.4332 12.5883 12.3199 13.6033 12.3082 14.8517C12.3082 16.0883 11.4332 17.115 10.3132 17.115ZM17.6749 17.115C16.5782 17.115 15.6799 16.1 15.6799 14.8517C15.6799 13.6033 16.5549 12.5883 17.6749 12.5883C18.7949 12.5883 19.6815 13.6033 19.6699 14.8517C19.6699 16.0883 18.7949 17.115 17.6749 17.115Z" fill="white"/>
</svg>
