<svg id="eye-off" width="18" height="18" viewBox="0 0 24 24" fill="none" xmlns="http://www.w3.org/2000/svg">
<path d="M3 3L21 21" stroke="currentColor" stroke-width="1.8" stroke-linecap="round"/>
<path d="M10.58 5.64C11.04 5.55 11.51 5.5 12 5.5C16.42 5.5 19.85 7.92 21.75 12C21.2 13.18 20.51 14.22 19.68 15.1" stroke="currentColor" stroke-width="1.8" stroke-linecap="round" stroke-linejoin="round"/>
<path d="M16.03 17.36C14.83 18.1 13.49 18.5 12 18.5C7.58 18.5 4.15 16.08 2.25 12C3.15 10.07 4.4 8.51 5.97 7.4" stroke="currentColor" stroke-width="1.8" stroke-linecap="round" stroke-linejoin="round"/>
<path d="M9.85 9.57C9.17 10.16 8.75 11.03 8.75 12C8.75 13.79 10.21 15.25 12 15.25C12.97 15.25 13.84 14.83 14.43 14.15" stroke="currentColor" stroke-width="1.8" stroke-linecap="round" stroke-linejoin="round"/>
</svg>
