<!-- Убрал четкие размеры, поскольку плохо масштабировалась
     иконка. Было вот так: width="25" height="23" -->
<svg id="messages-thin"  viewBox="0 0 25 23" fill="none" xmlns="http://www.w3.org/2000/svg">
  <path d="M9.58248 7.45833H18.1652M9.58248 12.625H18.1652M5.90417 7.45833H5.91643M5.90417 12.625H5.91643M23.0696 21.6667L18.9937 19.5197C18.6847 19.3569 18.5302 19.2755 18.3682 19.2182C18.2245 19.1673 18.0766 19.1305 17.9264 19.1083C17.7572 19.0833 17.5844 19.0833 17.239 19.0833H4.92329C3.54991 19.0833 2.86324 19.0833 2.33868 18.8018C1.87727 18.5541 1.50213 18.1589 1.26703 17.6728C0.999756 17.1203 0.999756 16.3968 0.999756 14.95V5.13333C0.999756 3.68652 0.999756 2.96313 1.26703 2.41053C1.50213 1.92443 1.87727 1.52923 2.33868 1.28157C2.86324 1 3.54993 1 4.92329 1H19.1461C20.5194 1 21.2062 1 21.7307 1.28157C22.1921 1.52923 22.5673 1.92443 22.8023 2.41053C23.0696 2.96313 23.0696 3.68654 23.0696 5.13333V21.6667Z" stroke="currentColor" stroke-width="2" stroke-linecap="round" stroke-linejoin="round" />
</svg>
