<svg id="messages-thin" width="29" height="31" viewBox="0 0 29 31" fill="none" xmlns="http://www.w3.org/2000/svg">
<path d="M12.0833 11.625H20.5417M12.0833 16.7917H20.5417M8.45833 11.625H8.47042M8.45833 16.7917H8.47042M25.375 25.8333L21.3581 23.6863C21.0536 23.5236 20.9014 23.4422 20.7418 23.3848C20.6002 23.334 20.4543 23.2971 20.3063 23.2749C20.1395 23.25 19.9693 23.25 19.6289 23.25H7.49167C6.1382 23.25 5.46147 23.25 4.94452 22.9684C4.48979 22.7208 4.12009 22.3255 3.8884 21.8395C3.625 21.2869 3.625 20.5635 3.625 19.1167V9.29999C3.625 7.85318 3.625 7.12978 3.8884 6.57718C4.12009 6.09109 4.48979 5.69589 4.94452 5.44823C5.46147 5.16666 6.13821 5.16666 7.49167 5.16666H21.5083C22.8618 5.16666 23.5386 5.16666 24.0555 5.44823C24.5102 5.69589 24.8799 6.09109 25.1116 6.57718C25.375 7.12978 25.375 7.85319 25.375 9.29999V25.8333Z" stroke="currentColor" stroke-width="2" stroke-linecap="round" stroke-linejoin="round"/>
</svg>
