<svg id="search" width="18" height="18" viewBox="0 0 18 18" fill="none" xmlns="http://www.w3.org/2000/svg">
<path d="M7.4001 0.199997C3.64072 0.199997 0.600098 3.24062 0.600098 7C0.600098 10.7594 3.64072 13.8 7.4001 13.8C8.74228 13.8 9.98447 13.4062 11.0376 12.7375L15.9501 17.65L17.6501 15.95L12.8001 11.1125C13.672 9.96875 14.2001 8.55156 14.2001 7C14.2001 3.24062 11.1595 0.199997 7.4001 0.199997ZM7.4001 1.8C10.2798 1.8 12.6001 4.12031 12.6001 7C12.6001 9.87968 10.2798 12.2 7.4001 12.2C4.52041 12.2 2.2001 9.87968 2.2001 7C2.2001 4.12031 4.52041 1.8 7.4001 1.8Z" fill="currentColor"/>
</svg>
