<svg id="share" viewBox="0 0 16 17" fill="none" xmlns="http://www.w3.org/2000/svg">
<path d="M11.1298 2.02362C10.5931 2.02362 10.0784 2.23682 9.69891 2.61633C9.31941 2.99583 9.10621 3.51054 9.10621 4.04724C9.10711 4.18949 9.12301 4.33124 9.15364 4.47015L4.55899 6.76747C4.36948 6.5493 4.13545 6.37425 3.87264 6.25409C3.60982 6.13393 3.32432 6.07145 3.03534 6.07086C2.49864 6.07086 1.98393 6.28407 1.60442 6.66357C1.22492 7.04307 1.01172 7.55779 1.01172 8.09449C1.01172 8.63118 1.22492 9.1459 1.60442 9.5254C1.98393 9.90491 2.49864 10.1181 3.03534 10.1181C3.32441 10.1178 3.61006 10.0555 3.87305 9.93554C4.13604 9.81555 4.37027 9.64061 4.55997 9.42249L9.15166 11.7188C9.12169 11.8578 9.10646 11.9996 9.10621 12.1417C9.10621 12.6784 9.31941 13.1931 9.69891 13.5726C10.0784 13.9522 10.5931 14.1654 11.1298 14.1654C11.6665 14.1654 12.1812 13.9522 12.5607 13.5726C12.9402 13.1931 13.1535 12.6784 13.1535 12.1417C13.1535 11.605 12.9402 11.0903 12.5607 10.7108C12.1812 10.3313 11.6665 10.1181 11.1298 10.1181C10.8408 10.1184 10.5551 10.1807 10.2921 10.3007C10.0291 10.4207 9.7949 10.5956 9.6052 10.8137L5.01351 8.51739C5.04348 8.37841 5.05871 8.23666 5.05896 8.09449C5.05799 7.95257 5.04209 7.81116 5.01153 7.67257L9.60618 5.37524C9.79578 5.59324 10.0298 5.7681 10.2927 5.88809C10.5555 6.00808 10.8409 6.0704 11.1298 6.07086C11.6665 6.07086 12.1812 5.85766 12.5607 5.47816C12.9402 5.09866 13.1535 4.58394 13.1535 4.04724C13.1535 3.51054 12.9402 2.99583 12.5607 2.61633C12.1812 2.23682 11.6665 2.02362 11.1298 2.02362Z" fill="currentColor"/>
</svg>
