<svg width="16" height="15" viewBox="0 0 16 15" fill="none" xmlns="http://www.w3.org/2000/svg" id="share_light">
  <path
    d="M12.6576 0.344116C12.0277 0.344116 11.4236 0.594358 10.9781 1.03979C10.5327 1.48522 10.2825 2.08936 10.2825 2.7193C10.2835 2.88625 10.3022 3.05263 10.3381 3.21567L4.94526 5.91211C4.72284 5.65603 4.44815 5.45057 4.13968 5.30953C3.8312 5.1685 3.4961 5.09517 3.15692 5.09448C2.52698 5.09448 1.92285 5.34472 1.47741 5.79015C1.03198 6.23558 0.781738 6.83972 0.781738 7.46966C0.781738 8.09959 1.03198 8.70373 1.47741 9.14916C1.92285 9.5946 2.52698 9.84484 3.15692 9.84484C3.49621 9.84446 3.83148 9.77139 4.14016 9.63055C4.44884 9.48971 4.72376 9.28438 4.94642 9.02837L10.3358 11.7236C10.3006 11.8868 10.2828 12.0531 10.2825 12.22C10.2825 12.85 10.5327 13.4541 10.9781 13.8995C11.4236 14.345 12.0277 14.5952 12.6576 14.5952C13.2876 14.5952 13.8917 14.345 14.3371 13.8995C14.7826 13.4541 15.0328 12.85 15.0328 12.22C15.0328 11.5901 14.7826 10.9859 14.3371 10.5405C13.8917 10.0951 13.2876 9.84484 12.6576 9.84484C12.3184 9.84522 11.9831 9.91829 11.6744 10.0591C11.3657 10.2 11.0908 10.4053 10.8681 10.6613L5.47875 7.96603C5.51392 7.80291 5.5318 7.63653 5.5321 7.46966C5.53096 7.30309 5.5123 7.1371 5.47643 6.97444L10.8693 4.27801C11.0918 4.53387 11.3666 4.73912 11.675 4.87995C11.9835 5.02078 12.3185 5.09393 12.6576 5.09448C13.2876 5.09448 13.8917 4.84424 14.3371 4.3988C14.7826 3.95337 15.0328 3.34923 15.0328 2.7193C15.0328 2.08936 14.7826 1.48522 14.3371 1.03979C13.8917 0.594358 13.2876 0.344116 12.6576 0.344116Z"
    fill="white" />
</svg>
