<svg width="29" height="29" viewBox="0 0 29 29" fill="none" xmlns="http://www.w3.org/2000/svg" id="share">
  <path
    d="M21.6972 2.83006C20.6964 2.83006 19.7366 3.22761 19.029 3.93527C18.3213 4.64292 17.9238 5.6027 17.9238 6.60348C17.9255 6.86872 17.9551 7.13304 18.0122 7.39206L9.44462 11.6759C9.09126 11.269 8.65487 10.9426 8.1648 10.7186C7.67473 10.4945 7.14236 10.378 6.6035 10.3769C5.60273 10.3769 4.64294 10.7745 3.93529 11.4821C3.22763 12.1898 2.83008 13.1496 2.83008 14.1503C2.83008 15.1511 3.22763 16.1109 3.93529 16.8185C4.64294 17.5262 5.60273 17.9237 6.6035 17.9237C7.14253 17.9231 7.67517 17.8071 8.16557 17.5833C8.65596 17.3596 9.09273 17.0334 9.44647 16.6266L18.0085 20.9086C17.9526 21.1677 17.9242 21.4321 17.9238 21.6972C17.9238 22.6979 18.3213 23.6577 19.029 24.3654C19.7366 25.073 20.6964 25.4706 21.6972 25.4706C22.698 25.4706 23.6578 25.073 24.3654 24.3654C25.0731 23.6577 25.4706 22.6979 25.4706 21.6972C25.4706 20.6964 25.0731 19.7366 24.3654 19.029C23.6578 18.3213 22.698 17.9237 21.6972 17.9237C21.1582 17.9244 20.6255 18.0404 20.1351 18.2642C19.6447 18.4879 19.208 18.8141 18.8542 19.2209L10.2922 14.9389C10.348 14.6798 10.3765 14.4154 10.3769 14.1503C10.3751 13.8857 10.3455 13.622 10.2885 13.3636L18.8561 9.07979C19.2096 9.48627 19.6461 9.81235 20.1361 10.0361C20.6262 10.2598 21.1585 10.376 21.6972 10.3769C22.698 10.3769 23.6578 9.97935 24.3654 9.27169C25.0731 8.56404 25.4706 7.60425 25.4706 6.60348C25.4706 5.6027 25.0731 4.64292 24.3654 3.93527C23.6578 3.22761 22.698 2.83006 21.6972 2.83006Z"
    fill="currentColor" />
</svg>
