<svg id="telegram" width="28" height="28" viewBox="0 0 28 28" fill="none" xmlns="http://www.w3.org/2000/svg">
<g clip-path="url(#clip0_399_13)">
<path d="M23.8 0H4.2C1.8804 0 0 1.8804 0 4.2V23.8C0 26.1196 1.8804 28 4.2 28H23.8C26.1196 28 28 26.1196 28 23.8V4.2C28 1.8804 26.1196 0 23.8 0Z" fill="#37AEE2"/>
<path d="M10.8828 22.0938C10.2812 22.0938 10.3359 21.875 10.1719 21.3281L8.42188 15.5859L21.8203 7.71094" fill="#C8DAEA"/>
<path d="M10.8828 22.0938C11.2656 22.0938 11.4844 21.875 11.7578 21.6562L14.2188 19.3047L11.1562 17.4453" fill="#A9C9DD"/>
<path d="M11.1565 17.4453L18.5393 22.8594C19.3049 23.3516 19.9611 23.0781 20.1799 22.0937L23.1877 7.98437C23.4611 6.78125 22.6955 6.23437 21.8752 6.61718L4.32052 13.3984C3.17208 13.8359 3.17208 14.5469 4.10177 14.8203L8.64083 16.2422L19.0315 9.625C19.5236 9.35156 19.9611 9.46093 19.633 9.84375" fill="#F6FBFE"/>
</g>
<defs>
<clipPath id="clip0_399_13">
<rect width="28" height="28" rx="10" fill="white"/>
</clipPath>
</defs>
</svg>
